<?xml version="1.0" encoding="UTF-8"?>
<svg version="1.1" viewBox="0 0 1600 1600" xmlns="http://www.w3.org/2000/svg">
<path transform="translate(509 102)" d="m0 0c1.03-0.00175 2.06-0.00351 3.12-0.00531 3.47-0.00467 6.94-0.00219 10.4 2.34e-4 2.51-0.00187 5.01-0.00417 7.52-0.00687 5.46-0.00485 10.9-0.00657 16.4-0.00554 8.11 0.00152 16.2-0.00263 24.3-0.00787 15.3-0.00968 30.7-0.0125 46-0.0131 11.8-4.59e-4 23.7-0.00252 35.5-0.0057 3.41-8.98e-4 6.82-0.00179 10.2-0.00267 0.847-2.21e-4 1.69-4.42e-4 2.57-6.7e-4 23.8-0.00616 47.7-0.0101 71.5-0.00966 0.899 1.56e-5 1.8 3.12e-5 2.72 4.72e-5 4.56 8.31e-5 9.11 1.82e-4 13.7 2.85e-4 1.36 2.99e-5 1.36 2.99e-5 2.74 6.04e-5 1.83 4.04e-5 3.66 8.22e-5 5.49 1.25e-4 28.5 6.13e-4 56.9-0.00689 85.4-0.0206 32-0.0154 63.9-0.024 95.9-0.023 3.41 7.46e-5 6.82 1.23e-4 10.2 1.54e-4 0.839 1.17e-5 1.68 2.33e-5 2.54 3.53e-5 13.5 3.08e-5 27-0.00636 40.5-0.015 13.6-0.00847 27.2-0.00947 40.7-0.00289 8.07 0.0037 16.1 0.00186 24.2-0.00794 6.02-0.0067 12-0.00295 18.1 0.00487 2.44 0.00154 4.87-3.05e-4 7.31-0.00586 3.31-0.00705 6.62-0.00178 9.93 0.00656 0.947-0.00497 1.89-0.00994 2.87-0.0151 6.15 0.0328 11.9 0.846 17.8 2.26v2h3c4.17 3.53 6.49 7.24 9 12 0.361 0.548 0.722 1.1 1.09 1.66 1.41 3.65 1.21 7.36 1.21 11.2 0.0127 1.34 0.0127 1.34 0.0256 2.72 0.0258 2.96 0.0379 5.92 0.0504 8.88 0.0162 2.05 0.0334 4.11 0.0515 6.16 0.0457 5.41 0.0805 10.8 0.112 16.2 0.0519 8.67 0.117 17.3 0.188 26 0.0229 3.03 0.0391 6.07 0.0547 9.1 0.0134 1.85 0.027 3.69 0.0409 5.54 0.00261 0.85 0.00523 1.7 0.00792 2.58-0.329 3.77-0.329 3.77 1.17 6.92 2.35 0.106 4.67 0.146 7.02 0.145 0.743 0.00353 1.49 0.00705 2.25 0.0107 2.51 0.0107 5.02 0.0144 7.53 0.0181 1.79 0.0063 3.58 0.0131 5.38 0.0203 3.87 0.0147 7.74 0.0264 11.6 0.0359 6.12 0.0154 12.2 0.0394 18.4 0.0649 17.4 0.0713 34.8 0.131 52.2 0.182 9.6 0.0283 19.2 0.0637 28.8 0.107 6.08 0.0268 12.2 0.0447 18.2 0.056 3.79 0.00914 7.58 0.0265 11.4 0.0462 1.75 0.00746 3.51 0.0116 5.26 0.012 2.4 0.00109 4.8 0.0144 7.2 0.0306 1.04-0.00393 1.04-0.00393 2.09-0.00793 4.53 0.0477 8.39 0.879 12.7 2.28 1.21 0.385 1.21 0.385 2.45 0.778 0.717 0.241 1.43 0.482 2.17 0.73 0.79 0.264 1.58 0.529 2.39 0.801 1.2 0.404 1.2 0.404 2.42 0.816 0.827 0.277 1.65 0.554 2.51 0.84 2.02 0.677 4.04 1.36 6.06 2.04v2c0.726 0.112 1.45 0.224 2.2 0.34 2.93 0.69 5.02 1.72 7.61 3.22 0.79 0.455 1.58 0.91 2.39 1.38 0.592 0.349 1.18 0.699 1.79 1.06v2l2.19 0.75c5.32 2.36 8.69 6.12 12.3 10.5 1.64 1.96 1.64 1.96 4.3 4.42 2.12 2.24 2.85 3.31 3.19 6.31h2v3h2c5.82 10.1 9.88 19.8 13 31l1 3c1.78 12.7 2.29 25.3 2.25 38.2 0.00209 1.86 0.00506 3.72 0.00881 5.59 0.00773 5.08 0.00316 10.2-0.00356 15.2-0.0051 5.54 0.00146 11.1 0.00649 16.6 0.00721 9.7 0.00701 19.4 0.00191 29.1-0.00722 13.7-0.00427 27.5 0.00156 41.2 0.0106 24.9 0.0113 49.9 0.00571 74.8-1.66e-4 0.738-3.31e-4 1.48-5.02e-4 2.24-1.66e-4 0.739-3.32e-4 1.48-5.03e-4 2.24-0.00505 22.5-0.00635 45.1-0.00395 67.6 1.55e-4 1.51 3.09e-4 3.02 4.63e-4 4.53 6.21e-4 6.07 0.00126 12.1 0.00192 18.2 0.00183 17 0.00298 33.9 0.00357 50.9 2.73e-5 0.773 5.46e-5 1.55 8.27e-5 2.34 8.18e-4 24.6-0.00143 49.2-0.00578 73.9-2.11e-4 1.2-2.11e-4 1.2-4.26e-4 2.42-0.00229 13-0.00473 25.9-0.00718 38.9-0.00971 51.4-0.00926 103 4.61e-4 154 0.00244 13 0.00486 25.9 0.00714 38.9 2.11e-4 1.2 2.11e-4 1.2 4.27e-4 2.42 0.00431 24.6 0.00614 49.2 0.00527 73.8-4.08e-5 1.16-4.08e-5 1.16-8.23e-5 2.34-6.25e-4 17-0.00189 33.9-0.00374 50.9-6.58e-4 6.07-0.00128 12.1-0.0019 18.2-1.55e-4 1.51-3.12e-4 3.02-4.72e-4 4.53-0.00238 22.5-3.59e-4 45.1 0.0047 67.6 2.48e-4 1.11 2.48e-4 1.11 5.02e-4 2.24 1.65e-4 0.737 3.31e-4 1.47 5.01e-4 2.23 0.00552 24.9 0.00348 49.8-0.00706 74.6-0.00592 14.3-0.00626 28.7 0.00129 43 0.00449 9.58 0.00169 19.2-0.00701 28.7-0.00475 5.46-0.0064 10.9 8.12e-4 16.4 0.0065 4.97 0.00365 9.94-0.00636 14.9-2e-3 1.78-7.24e-4 3.56 0.00441 5.34 0.0537 20-0.96 39.4-9.86 57.7-1.25 2.6-2.36 5.21-3.4 7.91h-2l-1 5h-2l-0.781 1.7c-1.36 2.56-2.95 4.75-4.72 7.05-0.608 0.799-1.22 1.6-1.84 2.42l-1.66 1.83h-2l-1 3c-1.56 1.61-1.56 1.61-3.44 3.19-0.926 0.795-0.926 0.795-1.87 1.61-1.69 1.21-1.69 1.21-3.69 1.21v2h-3v2c-18.9 14.4-43.4 17.3-66.3 17.3-1.73 0.00239-3.46 0.00566-5.19 0.00972-4.74 0.00859-9.48 0.00481-14.2-0.00106-5.16-0.00418-10.3 0.00324-15.5 0.00915-9.04 0.00876-18.1 0.0101-27.1 0.0065-13.4-0.00531-26.9 7.89e-4 -40.3 0.00908-24.7 0.0148-49.4 0.0171-74.1 0.0147-3.5-3.38e-4 -7-6.61e-4 -10.5-9.66e-4 -0.695-6.1e-5 -1.39-1.22e-4 -2.11-1.85e-4 -15.4-0.00127-30.8 0.00133-46.2 0.00471-3.52 7.71e-4 -7.04 0.00152-10.6 0.00227-1.41 3.02e-4 -2.83 6.04e-4 -4.24 9.06e-4 -1.05 2.25e-4 -1.05 2.25e-4 -2.12 4.54e-4 -1.42 3.04e-4 -2.83 6.08e-4 -4.25 9.14e-4 -40.2 0.00867-80.4 0.0133-121 0.00905-0.744-7.81e-5 -1.49-1.56e-4 -2.26-2.37e-4 -8.3-8.73e-4 -16.6-0.0018-24.9-0.00275-0.749-8.55e-5 -1.5-1.71e-4 -2.27-2.59e-4 -6.23-7.11e-4 -6.23-7.11e-4 -9.09-0.00104-47.9-0.00554-95.8 0.00201-144 0.0208-12.1 0.00472-24.1 0.0094-36.2 0.0138-1.12 4.1e-4 -1.12 4.1e-4 -2.25 8.28e-4 -22.9 0.00837-45.8 0.0131-68.8 0.0139-0.72 2.64e-5 -1.44 5.27e-5 -2.18 7.99e-5 -15.8 5.41e-4 -31.6 1.68e-4 -47.4-0.00104-5.65-4.26e-4 -11.3-7.91e-4 -17-0.00113-1.41-8.53e-5 -2.81-1.74e-4 -4.22-2.67e-4 -22.4-0.00145-44.8 0.00567-67.2 0.017-23.2 0.0117-46.4 0.0122-69.6 1.57e-4 -13.4-0.00663-26.7-0.00499-40.1 0.00859-8.93 0.00824-17.9 0.00555-26.8-0.00598-5.09-0.00626-10.2-0.00785-15.3 0.00386-4.64 0.0106-9.27 0.00711-13.9-0.0071-1.66-0.00271-3.32-5.02e-4 -4.97 0.00751-11.5 0.0515-22.3-1.2-33.5-3.39v-2c-1.73-0.131-1.73-0.131-3.5-0.266-4.7-0.591-8.35-2.28-12.5-4.48-0.695-0.36-1.39-0.72-2.11-1.09-4.78-2.5-9.49-5.04-13.9-8.16v-2l-6-3v-2c-0.99-0.33-1.98-0.66-3-1v-2h-2c-4.26-4.14-7.97-8.9-11-14v-2h-2c-8.51-15.9-14.2-31-14.1-49.2-0.00165-0.776-0.0033-1.55-5e-3 -2.35-0.0043-2.59-0.00153-5.18 0.00123-7.77-0.00165-1.89-0.00374-3.78-0.00622-5.67-0.00556-5.2-0.0049-10.4-0.00322-15.6 7.31e-4 -5.65-0.00429-11.3-0.00858-17-0.00758-11.2-0.00977-22.4-0.0103-33.7-6.34e-4 -9.33-0.0036-18.7-0.00821-28-3.3e-4 -0.672-6.6e-4 -1.34-1e-3 -2.04-0.00135-2.74-0.00271-5.47-0.00409-8.21-0.0163-32.4-0.0227-64.8-0.0274-97.2-0.00238-16.1-0.00609-32.3-0.01-48.4-0.0127-51.7-0.0234-103-0.0268-155-1.62e-4 -2.47-3.28e-4 -4.95-4.94e-4 -7.42-3.34e-4 -4.96-6.64e-4 -9.92-9.95e-4 -14.9-3.87e-4 -5.81-7.77e-4 -11.6-0.00117-17.4-1.12e-4 -1.66-2.24e-4 -3.32-3.34e-4 -4.99-0.00355-53.4-0.0186-107-0.0419-160-0.0167-38.4-0.0322-76.7-0.0367-115-9.35e-5 -0.789-1.87e-4 -1.58-2.83e-4 -2.39-0.00202-17.3-0.00318-34.6-0.00353-52-1.36e-4 -6.2-3.45e-4 -12.4-5.93e-4 -18.6-6.16e-5 -1.54-1.2e-4 -3.08-1.75e-4 -4.63-9.2e-4 -24.6-0.0109-49.1-0.0255-73.7-0.0146-24.7-0.0197-49.5-0.0116-74.2 0.00112-3.42 0.00213-6.84 0.00307-10.3 1.9e-4 -0.671 3.8e-4 -1.34 5.76e-4 -2.03 0.0029-11.2-0.00608-22.5-0.0182-33.7-0.00974-9.79-0.00858-19.6 0.00144-29.4 0.0054-5.58 0.00608-11.2-0.00651-16.7-0.0114-5.08-0.00878-10.2 0.00467-15.2 0.00242-1.82-1.16e-4 -3.64-0.0084-5.46-0.088-20.7 3.77-38.4 14.4-56.5 0.513-0.928 1.03-1.86 1.55-2.81 0.477-0.722 0.954-1.44 1.45-2.19h2c0.186-0.66 0.371-1.32 0.562-2 4.03-8.41 12-14.7 19.4-20h2v-2c0.592-0.326 1.18-0.652 1.79-0.988 4.96-2.74 4.96-2.74 9.83-5.64 5.85-3.38 11.7-5.09 18.2-6.5 4.96-0.692 4.96-0.692 9.12-2.88 2.38-0.0976 4.73-0.13 7.11-0.12 0.752-8.54e-4 1.5-0.00171 2.28-0.00259 2.54-0.00166 5.08 0.00387 7.62 0.00932 1.81 2.82e-4 3.63 1.24e-4 5.44-4.42e-4 4.94-2.88e-4 9.88 0.00561 14.8 0.0126 5.15 0.00623 10.3 0.00684 15.5 0.00803 9.77 0.00311 19.5 0.0113 29.3 0.0213 11.1 0.0112 22.2 0.0167 33.4 0.0217 22.9 0.0105 45.8 0.0281 68.6 0.0503 0.00214-1.73 0.00214-1.73 0.00432-3.5 0.0167-10.9 0.0596-21.8 0.128-32.7 0.0342-5.61 0.0594-11.2 0.0635-16.8 0.00429-5.42 0.0329-10.8 0.0779-16.3 0.0129-2.06 0.0173-4.13 0.0127-6.19-0.0353-20.8-0.0353-20.8 5.71-28.5h2l1-3h2v-2c1.2-0.656 2.41-1.3 3.62-1.94 0.673-0.36 1.35-0.719 2.04-1.09 5.92-2.46 12.2-2.11 18.5-2.1zm-224 163c-0.958 0.353-1.92 0.706-2.9 1.07-0.713 0.266-1.43 0.531-2.16 0.805v2l-2.31 0.875c-2.84 1.09-2.84 1.09-5.69 3.12v2c-0.99 0.33-1.98 0.66-3 1v2h-2c-8.42 10.7-13.3 22.3-13.3 36-0.00318 0.768-0.00635 1.54-0.00963 2.33-0.0082 2.57-0.00222 5.14 0.00372 7.71-3e-3 1.87-0.00687 3.74-0.0115 5.61-0.0103 5.16-0.00812 10.3-0.00394 15.5 0.00236 5.6-0.0068 11.2-0.0145 16.8-0.0119 9.83-0.0162 19.7-0.0157 29.5 5.72e-4 10.5-0.00306 21.1-0.012 31.6-5.6e-4 0.666-0.00112 1.33-0.0017 2.02-0.00229 2.71-0.00461 5.42-0.00696 8.14-0.0245 28.3-0.0347 56.6-0.0395 84.9-5.24e-4 3.05-0.00105 6.09-0.00158 9.14-1.29e-4 0.756-2.58e-4 1.51-3.91e-4 2.29-0.00291 16.7-0.00906 33.5-0.0157 50.2-0.00272 6.9-0.00535 13.8-0.00799 20.7-2.91e-4 0.762-5.82e-4 1.52-8.82e-4 2.31-0.0166 43.7-0.0285 87.3-0.0309 131-9.46e-5 1.63-1.9e-4 3.27-2.85e-4 4.9-4.28e-4 7.38-8.33e-4 14.8-0.00124 22.1-1.82e-4 3.29-3.66e-4 6.58-5.52e-4 9.87-9.2e-5 1.65-1.82e-4 3.29-2.71e-4 4.94-0.00281 52.1-0.0245 104-0.0614 156-0.0275 38.8-0.0534 77.7-0.0599 117-1.33e-4 0.782-2.67e-4 1.56-4.04e-4 2.37-0.00287 17.2-0.00429 34.3-0.00436 51.5-3.97e-5 6.14-1.97e-4 12.3-4.15e-4 18.4-5.36e-5 1.53-1.02e-4 3.06-1.44e-4 4.58-7.43e-4 24.3-0.0164 48.7-0.0396 73-0.0233 24.5-0.0305 49-0.0158 73.6 0.00203 3.39 0.00388 6.78 0.00563 10.2 3.5e-4 0.665 7e-4 1.33 0.00106 2.01 0.00539 11.1-0.00899 22.3-0.0286 33.4-0.0157 9.7-0.0133 19.4 0.00391 29.1 0.00929 5.53 0.0107 11.1-0.00997 16.6-0.0187 5.04-0.0141 10.1 0.00859 15.1 0.00414 1.8 4.03e-6 3.61-0.0137 5.41-0.127 17.9 3.4 34.1 16.3 47.4 4.46 4.54 4.46 4.54 10.3 6v2c1.54 0.627 3.08 1.25 4.62 1.88 0.859 0.348 1.72 0.696 2.6 1.05 0.915 0.353 1.83 0.706 2.77 1.07 0.898 0.347 1.8 0.694 2.72 1.05 3.66 1.06 6.71 1.2 10.5 1.2 0.711 0.00293 1.42 0.00586 2.15 0.00888 2.39 0.00739 4.77 5.23e-4 7.16-0.00625 1.73 0.00239 3.47 0.00565 5.2 0.00972 4.78 0.00865 9.57 0.00478 14.4-0.00106 5.2-0.00416 10.4 0.00322 15.6 0.00915 9.12 0.00878 18.2 0.0101 27.3 0.0065 13.6-0.0053 27.1 7.77e-4 40.7 0.00908 24.9 0.0148 49.8 0.0171 74.7 0.0147 3.53-3.38e-4 7.06-6.61e-4 10.6-9.66e-4 0.701-6.1e-5 1.4-1.22e-4 2.13-1.85e-4 15.5-0.00127 31.1 0.00133 46.6 0.00471 3.55 7.71e-4 7.09 0.00152 10.6 0.00227 1.42 3.02e-4 2.85 6.04e-4 4.27 9.06e-4 0.706 1.5e-4 1.41 2.99e-4 2.14 4.54e-4 1.43 3.04e-4 2.85 6.08e-4 4.28 9.14e-4 40.5 0.00867 81 0.0133 122 0.00905 0.75-7.81e-5 1.5-1.56e-4 2.27-2.37e-4 8.37-8.73e-4 16.7-0.0018 25.1-0.00275 0.755-8.55e-5 1.51-1.71e-4 2.29-2.59e-4 4.58-5.19e-4 4.58-5.19e-4 9.16-0.00104 48.3-0.00554 96.6 0.00201 145 0.0208 12.2 0.00472 24.3 0.0094 36.5 0.0138 1.12 4.1e-4 1.12 4.1e-4 2.27 8.28e-4 23.1 0.00837 46.2 0.0131 69.3 0.0139 0.725 2.64e-5 1.45 5.27e-5 2.2 7.99e-5 15.9 5.41e-4 31.8 1.68e-4 47.7-0.00104 5.69-4.26e-4 11.4-7.91e-4 17.1-0.00113 1.42-8.53e-5 2.83-1.74e-4 4.25-2.67e-4 22.6-0.00145 45.2 0.00568 67.7 0.017 23.4 0.0116 46.7 0.0122 70.1 1.57e-4 13.5-0.00664 27-0.00496 40.4 0.00859 9 0.00822 18 0.00558 27-0.00598 5.13-0.00628 10.3-0.00779 15.4 0.00386 4.67 0.0105 9.33 0.00721 14-0.0071 1.68-0.00273 3.36-4.31e-4 5.03 0.00751 8.59 0.0378 16.5-0.108 24.6-3.39v-2l2-0.188c4.12-1.12 7.66-3.15 11-5.81v-2c0.99-0.33 1.98-0.66 3-1v-2c0.99-0.33 1.98-0.66 3-1v-2h2c7.31-9.94 11.3-21.7 11.3-34 0.00458-1.15 0.00458-1.15 0.00925-2.33 0.00778-2.57 0.00137-5.14-0.00498-7.7 0.00269-1.87 0.00626-3.74 0.0106-5.61 0.00947-5.15 0.00645-10.3 0.00144-15.5-0.00326-5.6 0.00501-11.2 0.0118-16.8 0.0103-9.82 0.0131-19.6 0.0111-29.5-0.0022-10.5-1.81e-4 -21.1 0.00714-31.6 4.59e-4 -0.665 9.19e-4 -1.33 0.00139-2.02 0.00188-2.71 0.00379-5.42 0.00574-8.13 0.0203-28.3 0.0264-56.6 0.0276-84.8 1.29e-4 -3.04 2.65e-4 -6.09 4.07e-4 -9.13 3.4e-5 -0.755 6.8e-5 -1.51 1.03e-4 -2.29 8.17e-4 -16.7 0.0052-33.5 0.0102-50.2 0.00206-6.89 0.00404-13.8 0.00603-20.7 2.21e-4 -0.761 4.42e-4 -1.52 6.7e-4 -2.31 0.0126-43.6 0.0209-87.3 0.02-131-3.16e-5 -1.63-6.3e-5 -3.27-9.44e-5 -4.9-1.47e-4 -7.37-3.23e-4 -14.7-5.08e-4 -22.1-8.22e-5 -3.29-1.63e-4 -6.58-2.43e-4 -9.86-4.08e-5 -1.65-8.28e-5 -3.29-1.26e-4 -4.94-0.00136-52 0.0133-104 0.0411-156 7e-3 -13.1 0.0139-26.2 0.0205-39.3 4.06e-4 -0.807 8.11e-4 -1.61 0.00123-2.45 0.0124-24.9 0.02-49.8 0.0225-74.6 7.99e-5 -0.781 1.6e-4 -1.56 2.42e-4 -2.37 0.00171-17.2 0.00223-34.3 0.00166-51.5-1.93e-4 -6.14-2.97e-4 -12.3-3.57e-4 -18.4-1.58e-5 -1.53-3.62e-5 -3.05-6.12e-5 -4.58-3.53e-4 -24.3 0.011-48.6 0.0283-73 0.0173-24.5 0.0217-49 0.00848-73.5-0.00182-3.39-0.00351-6.77-0.00512-10.2-3.2e-4 -0.664-6.4e-4 -1.33-9.7e-4 -2.01-0.00499-11.1 0.00584-22.3 0.0209-33.4 0.012-9.7 0.00944-19.4-0.00494-29.1-0.00779-5.53-0.00925-11.1 0.00691-16.6 0.0146-5.03 0.0107-10.1-0.00785-15.1-0.00343-1.81-2.17e-4 -3.61 0.0106-5.42 0.0713-12.8-1.62-23.2-6.51-35.1h-2l-1-5h-2v-3h-2l-1-3h-2v-2c-1.27-1.69-1.27-1.69-3-3h-3v-2c-1.73-0.962-3.46-1.92-5.19-2.88-0.963-0.534-1.93-1.07-2.92-1.62-7.11-3.71-13.3-4.63-21.3-4.63-0.728-8.54e-4 -1.46-0.00171-2.21-0.00259-2.43-0.00164-4.85 0.00384-7.28 0.00932-1.74 2.82e-4 -3.49 1.24e-4 -5.23-4.42e-4 -4.73-2.87e-4 -9.46 0.00559-14.2 0.0126-4.94 0.00625-9.89 0.00684-14.8 0.00803-9.36 0.00311-18.7 0.0113-28.1 0.0213-10.7 0.0112-21.3 0.0167-32 0.0217-21.9 0.0105-43.8 0.028-65.8 0.0503-0.00214 1.36-0.00214 1.36-0.00432 2.74-0.0179 8.56-0.0597 17.1-0.128 25.7-0.0342 4.4-0.0594 8.8-0.0635 13.2-0.0043 4.25-0.0329 8.51-0.0779 12.8-0.0129 1.62-0.0173 3.23-0.0127 4.85 0.0183 8.43-0.109 15.5-4.64 23-1.24 1.72-1.24 1.72-1.07 3.78h-2v2c-9.92 5.16-18.3 6.15-29.4 6.13-1.02 0.00175-2.05 0.00351-3.1 0.00531-3.43 0.00466-6.86 0.0022-10.3-2.34e-4 -2.48 0.00187-4.97 0.00417-7.45 0.00687-5.4 0.00484-10.8 0.00657-16.2 0.00554-8.03-0.00153-16.1 0.00264-24.1 0.00787-15.2 0.00967-30.4 0.0125-45.5 0.0131-11.7 4.6e-4 -23.4 0.00252-35.2 0.0057-3.37 8.98e-4 -6.75 0.00179-10.1 0.00267-0.839 2.21e-4 -1.68 4.42e-4 -2.54 6.7e-4 -23.6 0.00615-47.2 0.0101-70.8 0.00966-0.889-1.56e-5 -1.78-3.12e-5 -2.69-4.72e-5 -4.51-8.31e-5 -9.01-1.82e-4 -13.5-2.85e-4 -0.895-2e-5 -1.79-3.99e-5 -2.71-6.04e-5 -1.81-4.04e-5 -3.62-8.22e-5 -5.43-1.25e-4 -28.2-6.13e-4 -56.3 0.0069-84.5 0.0206-31.6 0.0154-63.3 0.024-94.9 0.023-3.37-7.46e-5 -6.75-1.23e-4 -10.1-1.54e-4 -0.831-1.16e-5 -1.66-2.33e-5 -2.52-3.53e-5 -13.4-3.08e-5 -26.7 0.00636-40.1 0.015-13.4 0.00847-26.9 0.00947-40.3 0.00289-7.98-0.0037-16-0.00186-23.9 0.00794-5.96 0.0067-11.9 0.00295-17.9-0.00487-2.41-0.00154-4.82 3.04e-4 -7.24 0.00586-3.28 0.00705-6.55 0.00177-9.83-0.00656-1.41 0.00745-1.41 0.00745-2.84 0.0151-6.14-0.033-11.8-0.897-17.8-2.26-1.67-0.338-3.33-0.672-5-1v-2c-0.619-0.0825-1.24-0.165-1.88-0.25-2.12-0.75-2.12-0.75-3.19-2.56-0.309-0.722-0.619-1.44-0.938-2.19l-1.5-1.88c-3.39-4.81-3.76-9.74-3.8-15.5-0.00844-0.711-0.0169-1.42-0.0256-2.16-0.0256-2.33-0.0379-4.67-0.0504-7-0.0162-1.63-0.0334-3.25-0.0515-4.88-0.0456-4.27-0.0804-8.53-0.112-12.8-0.052-6.85-0.117-13.7-0.188-20.5-0.0229-2.39-0.0391-4.79-0.0547-7.18-0.0134-1.46-0.027-2.91-0.0409-4.37-0.00951-1.28-0.019-2.55-0.0288-3.87 0.18-2.75 0.18-2.75-1.14-3.85-2.25-0.101-4.5-0.131-6.75-0.134-1.07-0.0034-1.07-0.0034-2.17-0.00687-2.41-0.00637-4.83-0.00551-7.24-0.00469-1.72-0.00299-3.45-0.00639-5.17-0.0102-4.69-0.00887-9.39-0.0112-14.1-0.0118-3.92-9.48e-4 -7.83-0.00462-11.7-0.00817-9.24-0.00816-18.5-0.0106-27.7-0.00987-9.53 6e-4 -19.1-0.00994-28.6-0.0257-8.18-0.0131-16.4-0.0184-24.5-0.0178-4.89 2.55e-4 -9.78-0.00259-14.7-0.0132-4.6-0.00969-9.2-0.00975-13.8-0.00248-1.69 0.00104-3.37-0.00131-5.06-0.00736-2.31-0.00774-4.61-0.00306-6.92 0.00463-1.29-5.45e-4 -2.58-0.00109-3.91-0.00165-5.84 0.403-11.1 2.35-16.5 4.37z" fill="#000204"/>
<path transform="translate(855 604)" d="m0 0c2.63 0.0216 5.25-3.9e-5 7.88-0.0254 8.3-0.0126 15.4 0.237 23.1 3.61 3.32 1.39 6.35 1.67 9.93 2 12.2 1.41 12.2 1.41 17.2 5.43 2.54 1.78 4.76 2.39 7.77 3.13 5.24 1.31 5.24 1.31 7.38 2.38v3c0.681 0.103 1.36 0.206 2.06 0.312 3.59 0.84 6.65 2.01 9.94 3.69 0.667 1.33 1.33 2.67 2 4 0.887 0.124 1.77 0.247 2.69 0.375 4.02 0.758 5.52 2.24 8.46 4.95 4.19 3.8 8.89 7.02 13.5 10.2 3.1 2.18 5.63 4.76 8.31 7.44 0.99 0.33 1.98 0.66 3 1 0.651 0.999 0.651 0.999 1.32 2.02 1.56 2.24 1.56 2.24 4.39 2.57 1.07 0.0437 2.14 0.0875 3.25 0.133 1.18 0.0638 2.35 0.128 3.57 0.193 1.23 0.0483 2.46 0.0967 3.73 0.146 14.5 0.622 14.5 0.622 20.8 3.94 5.25 1.97 10.4 3.4 16 4.28 2.04 0.723 2.04 0.723 3.95 2.68 2.53 2.47 4.43 2.98 7.85 3.79 1.48 0.364 1.48 0.364 2.98 0.734 0.748 0.17 1.5 0.34 2.27 0.516v3c2.64 1.41 5.07 2.37 8 3v2h2c1.36 1.31 2.68 2.65 4 4 1.24 1.09 2.49 2.17 3.75 3.25 11.6 10.1 11.6 10.1 15.2 16.8 0.66 0.33 1.32 0.66 2 1v2h2l1.31 2.88c1.48 3.33 1.48 3.33 4.69 5.12 1.12 2.48 1.96 5.01 2.84 7.59 0.981 2.53 0.981 2.53 3.2 3.89 2.65 2.05 2.8 3.72 3.46 6.96 0.865 4.23 0.865 4.23 3.49 7.54 2.53 2.54 2.94 4.48 3.7 7.96 0.231 1.02 0.461 2.04 0.699 3.09 0.548 2.66 1.09 5.31 1.61 7.97h2c2.21 5.74 2.67 11.3 3.21 17.4 0.437 4.48 1.16 8.4 2.79 12.6h2c3.18 31.6 2.82 63.7 1.19 95.4-0.0348 0.742-0.0697 1.48-0.106 2.25-0.346 7.07-0.698 13.8-3.37 20.5-5.36 14.3-2.87 33.4-2.84 48.4 0.00539 3.96 1.08e-5 7.92-0.00635 11.9 6.6e-4 2.54 0.00194 5.08 0.00391 7.62-0.00202 1.17-0.00405 2.34-0.00613 3.55-0.365 11.4-0.365 11.4 3.01 22 2.55 4.54 3.2 9.45 3.91 14.5 0.801 5.17 2.4 10.1 6.22 13.9 0.186 1.61 0.186 1.61 0.375 3.25 0.714 4.28 1.89 7.18 5.14 10.1 1.77 1.95 2.19 3.47 2.86 6.01 1.34 4.37 3.25 6.5 6.62 9.62 1.02 1.99 2.02 3.99 3 6 0.99 0.66 1.98 1.32 3 2 3 6.11 3 6.11 3 10 1.98 0.66 3.96 1.32 6 2v9c-1.98 0.33-3.96 0.66-6 1v2c-5.93 5.79-13.3 8.43-21 11v2c-0.664 0.121-1.33 0.242-2.01 0.367-6.69 1.19-6.69 1.19-13 3.63-0.33 0.66-0.66 1.32-1 2-4.28 2.06-8.52 2.62-13.2 3.24-2.96 0.618-2.96 0.618-5.52 2.7-4.42 2.75-8.59 3.28-13.7 4.05-7.6 1.13-7.6 1.13-14.6 4.03-4.6 2.52-9.2 2.94-14.4 3.47-5.54 0.575-10.4 1.26-15.5 3.53-5.6 2.41-10.9 2.74-17 3.04-8.38 0.551-16.1 1.55-24.1 3.94-1.66 0.375-3.33 0.73-5 1.06-0.802 0.162-1.6 0.325-2.43 0.492-1.85 0.32-3.71 0.567-5.58 0.766-7.7 0.907-11.7 3-17 8.68-0.545 0.507-1.09 1.01-1.65 1.54-1.6 1.54-1.6 1.54-2.35 4.46l-2.38 1.38c-2.79 1.45-2.79 1.45-4.19 4.25-1.44 2.38-1.44 2.38-3.5 2.94-0.639 0.144-1.28 0.289-1.94 0.438-0.309 0.66-0.619 1.32-0.938 2-0.526 0.99-0.526 0.99-1.06 2-2.62 0.75-2.62 0.75-5 1v2c-3.47 4.26-6.89 5.97-11.9 8.03-2.25 0.917-2.25 0.917-4.19 3.1-2.6 2.6-5.37 2.89-8.88 3.88-0.741 0.645-1.48 1.29-2.25 1.95-3.31 2.46-6.4 3.14-10.4 3.8-0.668 0.125-1.34 0.25-2.02 0.379-2.83 0.514-5.47 0.871-8.35 0.871v2c-11.2 4.08-23.6 4.21-35 1-0.942-0.491-1.88-0.982-2.86-1.49-3.57-1.72-6.74-2.27-10.6-2.89-7.97-1.39-7.97-1.39-10.8-4.12-3.74-3.48-7.8-4.31-12.7-5.5v-3c-0.949-0.309-1.9-0.619-2.88-0.938-3.12-1.06-3.12-1.06-5.12-2.06v-2h-2c-1.33-1.33-2.67-2.67-4-4l-3.19-2.06c-2.81-1.94-2.81-1.94-3.81-4.94l-5-2c-0.33-0.99-0.66-1.98-1-3h-2c-1.35-1.31-2.69-2.65-4-4l-2-1c-0.727-1.98-1.4-3.98-2-6h-3c-0.657-0.79-1.31-1.58-1.99-2.39-4.35-3.77-8.53-3.77-14.1-4.29-1.98-0.205-3.96-0.417-5.95-0.637-0.874-0.0834-1.75-0.167-2.65-0.253-2.28-0.423-2.28-0.423-5.28-2.42-8.15-2.39-16.7-2.6-25.2-3.04-5.96-0.404-10.6-1.38-15.9-4.04-2.22-1.09-4.33-1.68-6.76-2.11-0.829-0.15-1.66-0.299-2.51-0.453-2.77-0.38-5.52-0.599-8.3-0.797-4.71-0.361-8.12-1.42-12.3-3.56v-2c-1.1-0.121-2.19-0.242-3.32-0.367-1.45-0.169-2.91-0.338-4.36-0.508-1.08-0.118-1.08-0.118-2.19-0.238-5.13-0.609-9.16-1.62-13.6-4.45-3.74-2.09-7.42-2.24-11.6-2.71-3.51-0.864-5.14-2.47-7.94-4.72-3.26-1.2-6.49-2.2-9.82-3.15-1.75-0.533-3.47-1.18-5.18-1.85-0.33-0.99-0.66-1.98-1-3-2.23-0.993-2.23-0.993-4.88-1.62-0.884-0.24-1.77-0.48-2.68-0.727-0.807-0.214-1.61-0.428-2.45-0.648-3.72-1.24-5.29-3.22-8-6-0.99-0.66-1.98-1.32-3-2-0.547-2.09-0.547-2.09-0.75-4.5-0.0773-0.794-0.155-1.59-0.234-2.41-0.0156-2.09-0.0156-2.09 0.984-4.09h2c1.4-2.59 2.39-5.16 3.31-7.94 1.45-3.99 3.64-6.09 6.69-9.06 1.04-2.32 2.04-4.65 3-7 0.492-0.459 0.985-0.918 1.49-1.39 2.49-2.65 2.82-5.97 3.66-9.43 0.278-0.719 0.557-1.44 0.844-2.18 0.99-0.33 1.98-0.66 3-1 0.928-2.56 0.928-2.56 1.5-5.62 1.37-6.04 3.35-11 6.04-16.6 1.92-4.51 2.2-9.13 2.55-14 0.424-4.6 1.45-8.57 2.97-12.9 2.4-7.46 2.4-14.4 2.2-22.2-0.0201-1.34-0.0384-2.68-0.0547-4.01-0.0466-3.23-0.112-6.45-0.195-9.67h-2v-2c-6.82 2.25-10.8 4.14-15 10-2.4 2.52-4.75 4.81-7.5 6.94-2.92 2.41-5.11 5.13-7.5 8.06l-4 4c-0.701 0.908-1.4 1.82-2.12 2.75l-1.88 2.25h-2c-0.0752 0.899-0.0752 0.899-0.152 1.82-0.234 2.75-0.478 5.5-0.723 8.25-0.0786 0.943-0.157 1.89-0.238 2.86-1.25 13.8-1.25 13.8-5.89 18.1-0.816 2.1-0.816 2.1-1.38 4.38-1.35 4.37-3.2 6.54-6.62 9.62-0.722 1.09-1.44 2.19-2.19 3.31-0.598 0.887-1.2 1.77-1.81 2.69h-2v2c-1.38 1.62-1.38 1.62-3 3h-2l-1 3c-3.19 3.47-6.71 6.48-10.3 9.53-3.23 2.8-6.11 5.7-8.7 9.1-2.15 2.55-4.01 3.92-7 5.38h-3v2c-2.54 3.67-6.68 4.35-10.8 5.5-4.06 1.18-7.89 2.33-11.7 4.13-4.16 1.63-7.53 1.87-11.9 1.81-0.757-0.00612-1.51-0.0122-2.29-0.0186-4.72-0.133-8.09-0.674-12.1-3.27-4.25-2.25-9.21-3.03-13.9-4.12-3.07-0.957-4.48-1.43-6.29-4.03v-2l-1.75-0.375c-5.04-1.4-7.04-3.51-10.2-7.62-0.66-0.433-1.32-0.866-2-1.31-2.59-2.19-3.55-4.57-4.88-7.65-1.06-2.17-1.06-2.17-3.15-3.92-2.44-2.62-2.87-4.57-3.6-8.05-0.834-3.88-1.8-7.41-3.38-11.1h-2c-1.21-2.42-1.13-3.98-1.13-6.68-0.00129-0.927-0.00258-1.85-0.00391-2.81 0.00387-0.971 0.00773-1.94 0.0117-2.94-0.00387-0.967-0.00773-1.93-0.0117-2.93 0.00129-0.929 0.00258-1.86 0.00391-2.81 0.00113-0.851 0.00226-1.7 0.00342-2.58 0.129-2.24 0.129-2.24 1.13-5.24 0.99-0.66 1.98-1.32 3-2 2.2-4.7 3.34-9.87 4-15h2c0.33-0.99 0.66-1.98 1-3h2l0.25-1.62c1.03-3.26 2.7-5.66 4.75-8.38 0.99-0.33 1.98-0.66 3-1v-2h2l0.188-1.88c0.268-0.701 0.536-1.4 0.812-2.12l2.44-0.938c2.79-0.808 2.79-0.808 3.62-3.5 0.309-0.846 0.619-1.69 0.938-2.56 3.31-3 3.31-3 6-3l0.125-1.69c1.31-3.47 4.04-5.01 6.88-7.31 0.33-0.99 0.66-1.98 1-3l6-3 2.31-2.44c3.07-2.93 5.89-4.15 9.8-5.67 2.07-0.742 2.07-0.742 2.89-2.89 6.13-2.71 12.8-2.72 19.4-3.21 6.51-0.534 6.51-0.534 12.6-2.79v-2h3c0.268-0.639 0.536-1.28 0.812-1.94 1.19-2.06 1.19-2.06 4.19-3.06 0.33-0.99 0.66-1.98 1-3h2c0.33-0.99 0.66-1.98 1-3h2c0.268-0.639 0.536-1.28 0.812-1.94 1.19-2.06 1.19-2.06 4.19-3.06 0.33-0.99 0.66-1.98 1-3h2c0.666-3.03 1.12-5.9 1-9-2.06-2.81-2.06-2.81-5-5-1.24-1.52-1.24-1.52-2.5-3.06-2.39-2.99-2.39-2.99-5.31-5.19l-2.19-1.75v-2c-0.866-0.371-0.866-0.371-1.75-0.75-2.58-1.43-4.31-3.03-6.25-5.25v-2c-0.605-0.0501-1.21-0.1-1.83-0.152-2.76-0.233-5.53-0.478-8.29-0.723-0.951-0.0786-1.9-0.157-2.88-0.238-6.59-0.595-12.2-1.78-18.1-4.89-2.28-1.19-4.37-2.15-6.81-3-2.67-1.25-2.84-2.43-4.12-5-0.753-0.293-1.51-0.585-2.28-0.887-3.02-1.24-4.82-2.72-7.22-4.93-0.777-0.714-1.55-1.43-2.36-2.16-6.35-5.99-6.35-5.99-9.02-9.46-2.27-2.73-4.71-4.88-7.44-7.13-1.66-1.41-3.23-2.8-4.68-4.43v-2h-2c-1.66-1.83-1.66-1.83-3.5-4.25-0.608-0.789-1.22-1.58-1.84-2.39-1.66-2.36-1.66-2.36-2.75-4.55-0.838-1.98-0.838-1.98-2.91-3.43-2.65-3.14-2.84-5.92-3.51-9.9-0.765-3.84-2.08-7.24-5.07-9.85-1.88-2.15-1.78-3.37-1.75-6.19 0.00516-0.879 0.0103-1.76 0.0156-2.66 0.0206-0.915 0.0412-1.83 0.0625-2.77 0.00516-0.915 0.0103-1.83 0.0156-2.77 0.0793-6.76 0.0793-6.76 1.23-10.2 1.48-0.99 1.48-0.99 3-2 1.03-3.06 1.03-3.06 1.81-6.62 1.47-5.54 3.09-9.36 6.8-13.7 1.63-1.85 1.63-1.85 3.07-5.12 1.31-2.56 1.31-2.56 4.31-3.56 0.619-0.99 1.24-1.98 1.88-3 2.12-3 2.12-3 4.88-3.88 0.742-0.0412 1.48-0.0825 2.25-0.125v-2h2c0.495-1.49 0.495-1.49 1-3 2.55-1.03 2.55-1.03 5.75-1.94 4.77-1.44 4.77-1.44 8.81-4.25 7.89-5.86 24.2-3.09 33.6-2.56 0.848 0.0464 1.7 0.0928 2.57 0.141 3 0.794 4.13 2.43 6.3 4.61 2.92 1.22 2.92 1.22 6.06 2.06 6.67 1.92 6.67 1.92 8.94 4.94v2c1.36 0.34 1.36 0.34 2.75 0.688 3.73 1.51 4.89 3.14 7.25 6.31 0.99 0.33 1.98 0.66 3 1 1.39 1.73 2.53 3.54 3.72 5.41 1.29 1.9 1.29 1.9 4.28 2.59 0.454 0.784 0.908 1.57 1.38 2.38 1.44 2.77 1.44 2.77 4.12 4.12 2.95 1.77 3.8 3.57 5.5 6.5 0.99 0.33 1.98 0.66 3 1 1.65 2.6 2 3.86 2 7 0.99 0.33 1.98 0.66 3 1v2h2c0.326 0.759 0.652 1.52 0.988 2.3 0.437 0.994 0.874 1.99 1.32 3.01 0.429 0.986 0.859 1.97 1.3 2.99 1.19 2.68 1.19 2.68 2.99 4.24 3.76 3.93 2.69 11.2 2.82 16.4 0.324 7.09 2.26 12.1 7.57 17.1v2h2c1.62 1.38 1.62 1.38 3 3v2c0.99 0.33 1.98 0.66 3 1v2h2c1.62 1.38 1.62 1.38 3 3v2c0.99 0.33 1.98 0.66 3 1v2h4l1-2h2c0.0804-0.943 0.161-1.89 0.244-2.86 0.303-3.51 0.613-7.03 0.928-10.5 0.135-1.52 0.266-3.04 0.396-4.55 0.186-2.19 0.383-4.37 0.581-6.56 0.115-1.31 0.23-2.63 0.349-3.98 0.458-3.19 1.21-5.58 2.5-8.51 1.38-7.05 2.05-14.1 2.44-21.3 0.44-6.99 1.66-12.8 5.56-18.7 0.626-3.49 1.15-6.97 1.59-10.5 0.742-4.92 2.07-8.05 5.26-11.9 1.34-1.9 1.77-3.49 2.27-5.75 0.844-3.74 1.86-5.7 3.88-8.88 0.66-1.49 1.3-2.99 1.94-4.5 1.6-3.69 3.55-6.36 6.06-9.5 0.696-1.53 1.36-3.07 2-4.62 1.52-3.63 2.78-5.09 6-7.38l1.44-3.38c1.68-3.89 3.56-5.7 6.56-8.62l1.5-3.12c1.74-3.34 3.32-4.03 6.5-5.88 0.878-2.09 0.878-2.09 1-4l2.38-0.188c0.866-0.268 1.73-0.536 2.62-0.812 0.674-1.66 1.34-3.33 2-5 1.98-1.36 3.98-2.7 6-4 0.464-0.99 0.464-0.99 0.938-2 1.46-2.75 3.65-3.59 6.33-5 1.92-1.01 1.92-1.01 3.79-3.07 2.4-2.4 4.85-3.59 7.94-4.94h2c0.241-0.619 0.482-1.24 0.73-1.88 1.57-2.64 2.74-3.06 5.58-4.12 2.84-1.15 4.77-2.07 7.19-4 2.95-2.36 5.92-3.61 9.38-5.06 2.23-0.917 2.23-0.917 4.49-2.5 3.48-1.91 7.05-2.63 10.9-3.5 2.85-0.808 2.85-0.808 5.16-2.97 3.1-2.38 5.14-2.64 9-3.03 4.83-0.615 8.3-1.5 12.6-3.94 5.48-1.73 10.8-2.93 16.5-3.39 0.855-0.069 1.71-0.138 2.59-0.209 1.74-0.136 3.47-0.264 5.21-0.383 5-0.418 9.67-1.22 14.5-2.5 9.72-2.55 18.9-3.13 29-3.03zm-367 144v2c-0.587 0.111-1.17 0.222-1.78 0.336-3.86 1.15-6.54 3.73-9.22 6.66-1.07 2.3-2.08 4.63-3 7-1.29 1.37-2.62 2.71-4 4-1.7 5.11-1.23 10.5-1.25 15.8-0.0206 1.18-0.0412 2.35-0.0625 3.56-0.13 8.32-0.13 8.32 3.31 15.6 0.66 0.33 1.32 0.66 2 1 0.433 1.11 0.866 2.23 1.31 3.38 1.88 4.03 2.95 4.57 6.69 6.62l1.5 2.56c1.84 2.99 3.33 3.18 6.5 4.44 0.688 2 0.688 2 1 4 0.66 0.66 1.32 1.32 2 2h3c0.248 0.763 0.495 1.53 0.75 2.31 1.37 2.95 2.49 4.05 5.25 5.69h2c0.0619 0.598 0.124 1.2 0.188 1.81 1.15 3.09 2.92 3.78 5.81 5.19h2v3c3.91 3.37 8.54 3.8 13.5 4.57 2.52 0.43 2.52 0.43 5.52 1.43 2.06 0.127 4.12 0.228 6.19 0.312 5.98 0.4 9.66 1.73 14.8 4.69h3c0.0619 0.577 0.124 1.15 0.188 1.75 1.14 3.15 3.18 4.23 5.81 6.25 1.35 1.65 2.69 3.32 4 5 1.65 1.69 3.31 3.36 5 5 0.536 0.598 1.07 1.2 1.62 1.81 1.45 1.51 1.45 1.51 4.38 1.19 0.0619 0.598 0.124 1.2 0.188 1.81 0.685 2.37 0.685 2.37 2.94 4.06 4.04 1.58 5.92 0.791 9.88-0.875 2.28-1.52 4.02-3.07 6-5v-2c0.99-0.33 1.98-0.66 3-1v-2h2c1.67-1.33 1.67-1.33 3-3v-2c0.99-0.33 1.98-0.66 3-1 2.8-4.19 2.84-8.07 2-13-2.25-1.92-2.25-1.92-5-3-0.495-0.846-0.99-1.69-1.5-2.56-1.84-2.99-3.33-3.18-6.5-4.44-0.688-2-0.688-2-1-4l-2-2h-3c-0.248-0.763-0.495-1.53-0.75-2.31-1.37-2.95-2.49-4.05-5.25-5.69h-2l-0.375-1.94c-0.337-1.65-0.681-3.3-1.07-4.94-1.03-4.41-1.79-8.76-2.37-13.2-1.78-12.9-1.78-12.9-8.16-23.5-0.668-0.456-1.34-0.913-2.02-1.38-1-1.66-2-3.33-3-5-1.74-1.88-3.54-3.71-5.38-5.5-0.936-0.918-1.87-1.84-2.84-2.78-0.92-0.897-1.84-1.79-2.79-2.72-4.77-4.69-4.77-4.69-6.75-7.38-4.24-4.95-9.44-8.73-15.2-11.6-1.35-1.31-2.69-2.64-4-4-4.37-2.18-10.2-1.27-15.1-1.3-2.16-0.0172-4.32-0.061-6.48-0.105-1.38-0.0101-2.77-0.0186-4.15-0.0254-1.25-0.0146-2.51-0.0292-3.8-0.0442-4.12 0.554-6.31 1.84-9.5 4.47zm274 0c-2.88 1.24-5.78 2.46-8.68 3.66-2.65 1.53-3.13 2.61-4.32 5.34-1.65 0.717-3.31 1.38-5 2-1.84 1.33-1.84 1.33-3 3v3c-1.65 0.33-3.3 0.66-5 1v2h-2c-0.248 0.619-0.495 1.24-0.75 1.88-1.25 2.12-1.25 2.12-3.19 3.06-2.29 0.945-2.29 0.945-3.5 3.5-1.82 2.99-3.59 3.81-6.56 5.56-0.697 1.32-1.37 2.65-2 4-0.99 0.33-1.98 0.66-3 1v2c-0.99 0.33-1.98 0.66-3 1l-1 3-1.88 0.875c-2.34 1-2.34 1-3.56 3.56-1.82 2.99-3.59 3.81-6.56 5.56-0.309 0.639-0.619 1.28-0.938 1.94-1.57 3.05-4.25 4.19-7.06 6.06-0.697 1.32-1.37 2.65-2 4-0.639 0.309-1.28 0.619-1.94 0.938-2.29 0.945-2.29 0.945-3.5 3.5-1.82 2.99-3.59 3.81-6.56 5.56-0.697 1.32-1.37 2.65-2 4-0.99 0.33-1.98 0.66-3 1v2h-2c-0.248 0.619-0.495 1.24-0.75 1.88-1.46 2.48-2.63 3.08-5.25 4.12v2h-2l-1 3c-0.804 0.474-1.61 0.949-2.44 1.44-2.65 1.3-2.65 1.3-3.5 3.5-1.57 3.05-4.25 4.19-7.06 6.06-0.683 1.33-1.35 2.66-2 4-1.67 1-3.33 2-5 3-0.683 1.33-1.35 2.66-2 4-0.639 0.309-1.28 0.619-1.94 0.938-2.29 0.945-2.29 0.945-3.5 3.5-1.82 2.99-3.59 3.81-6.56 5.56-0.683 1.33-1.35 2.66-2 4-2.12 1.25-2.12 1.25-4 2v2h-2c-0.0619 0.577-0.124 1.15-0.188 1.75-1.13 3.13-3.19 4.28-5.81 6.25-0.33 0.66-0.66 1.32-1 2-1.76 1.07-3.57 1.97-5.41 2.9-1.93 1.09-1.93 1.09-2.59 4.1-2.06 1.19-2.06 1.19-4 2v2h-2c-0.248 0.619-0.495 1.24-0.75 1.88-1.46 2.48-2.63 3.08-5.25 4.12v2h-2v3c-0.763 0.247-1.53 0.495-2.31 0.75-2.95 1.37-4.05 2.49-5.69 5.25v2c-0.598 0.0619-1.2 0.124-1.81 0.188-2.41 0.634-2.41 0.634-3.56 3.12-1.62 2.69-1.62 2.69-4.75 4.75-3.23 2.18-3.06 2.46-3.88 5.94-0.804 0.309-1.61 0.619-2.44 0.938-2.81 0.812-2.81 0.812-3.62 3.62l-0.938 2.44c-1.33 0.354-2.66 0.685-4 1-3.06 3.04-3.06 3.04-4 7-0.949-0.0206-1.9-0.0412-2.88-0.0625-3.03-0.163-3.03-0.163-5.12 1.06-2.63 0.208-5.24 0.374-7.88 0.5-6.14 0.227-6.14 0.227-12.1 1.5v2c-0.808 0.159-1.62 0.317-2.45 0.48-6.4 1.4-10.4 2.32-14.6 7.52-0.66 0.33-1.32 0.66-2 1v2h-2v3c-1.21 0.402-1.21 0.402-2.44 0.812-1.27 0.588-1.27 0.588-2.56 1.19l-1 3h-2v3c-0.763 0.247-1.53 0.495-2.31 0.75-2.95 1.37-4.05 2.49-5.69 5.25v2h-3v2h-2l-0.75 1.88c-1.25 2.12-1.25 2.12-3.19 2.94-3.2 1.84-3.68 4.85-5.06 8.19-1.29 1.37-2.62 2.71-4 4-1.71 5.12-1.23 10.5-1.25 15.9-0.0206 1.18-0.0412 2.37-0.0625 3.59-0.00516 1.14-0.0103 2.29-0.0156 3.46-0.014 1.57-0.014 1.57-0.0283 3.16 0.409 3.34 1.46 5.16 3.36 7.91 3 5 3 5 4.38 7.5 3.31 5.09 7.04 8.14 12.6 10.5h2l1 3c10.1 4.36 22.5 3.65 33 1 0.99-0.66 1.98-1.32 3-2v-2h2v-2c1.42-0.0928 1.42-0.0928 2.88-0.188l3.12-0.812c1.16-2.47 1.16-2.47 2-5 2-0.75 2-0.75 4-1 2.22-0.876 2.22-0.876 3.31-3.38 1.69-2.62 1.69-2.62 4.38-4.19 0.763-0.474 1.53-0.949 2.31-1.44v-4l2.25-0.688c3.33-1.59 4.56-3.37 6.75-6.31 2.51-2.58 5.08-5.08 7.69-7.56 3.21-3.38 4.43-6.34 5.31-10.9 0.478-2.46 0.999-4.56 2-6.86 1.28-3.45 1.63-6.88 2-10.5 0.623-5.54 1.44-10.8 3-16.2 1.65-0.33 3.3-0.66 5-1l0.188-2.38c0.268-0.866 0.536-1.73 0.812-2.62 2.38-1.06 2.38-1.06 5-2 2.45-2.62 2.45-2.62 3-6l2.25-0.688c3.3-1.57 4.57-3.43 6.75-6.31l2.19-1.62c2.11-1.33 2.11-1.33 2.81-4.38l3-1.94c3.33-2.29 3.17-2.49 4-6.06 1.65-0.697 3.32-1.36 5-2 2.45-2.62 2.45-2.62 3-6 0.804-0.248 1.61-0.495 2.44-0.75 0.846-0.413 1.69-0.825 2.56-1.25l1-4c2.44-1.12 2.44-1.12 5-2 2.15-1.76 2.15-1.76 2.31-3.88 1-3.1 3.14-4.2 5.69-6.12 0.66-0.99 1.32-1.98 2-3 0.846-0.309 1.69-0.619 2.56-0.938 0.804-0.351 1.61-0.701 2.44-1.06 0.887-2.04 0.887-2.04 1-4h2v-2c0.804-0.248 1.61-0.495 2.44-0.75 0.846-0.413 1.69-0.825 2.56-1.25l1-4c1.65-0.697 3.32-1.36 5-2 2.45-2.62 2.45-2.62 3-6 0.784-0.248 1.57-0.495 2.38-0.75 2.72-0.967 2.72-0.967 3.56-3.12 1.56-3.11 4.2-4.24 7.06-6.12 0.33-0.99 0.66-1.98 1-3 0.784-0.454 1.57-0.908 2.38-1.38 3.02-1.87 3.85-3.62 5.62-6.62 1.33-0.667 2.67-1.33 4-2 0.805-2.05 0.805-2.05 1-4h2v-2c0.804-0.268 1.61-0.536 2.44-0.812 0.846-0.392 1.69-0.784 2.56-1.19 0.33-0.99 0.66-1.98 1-3l2.94-1.94c3.13-2.11 3.52-2.88 5.06-6.06 0.804-0.474 1.61-0.949 2.44-1.44 2.99-1.82 3.81-3.59 5.56-6.56 1.33-0.667 2.67-1.33 4-2l1.5-2.5c1.67-2.79 2.68-3.13 5.5-4.5 0.433-0.897 0.433-0.897 0.875-1.81 1.36-2.65 3.25-4.07 5.55-5.91 3.42-2.78 6.3-5.94 9.08-9.34 2.34-2.75 4.66-4.74 7.5-6.94 3.82-3.46 3.82-3.46 6-8h2c1.6-1.62 1.6-1.62 3.25-3.69 2.25-2.67 4.43-4.99 7.19-7.12 0.846-0.722 1.69-1.44 2.56-2.19v-3c0.578-0.0619 1.16-0.124 1.75-0.188 3.17-1.15 4.38-3.07 6.25-5.81v-2l1.69-0.125c2.89-1.09 4.16-2.87 6.03-5.26 3.55-4.47 7.92-7.98 12.3-11.6 1.69-1.65 3.36-3.31 5-5l2-2c0.5-2.46 0.5-2.46 0-5-2.43-2.56-3.91-2.99-7.45-3.4-1.37-0.0265-2.73-0.0353-4.1-0.0295-0.73-0.00524-1.46-0.0105-2.21-0.0159-1.54-0.00641-3.09-0.00509-4.63 0.00343-2.34 0.00847-4.68-0.0202-7.02-0.052-7.79-0.0368-13.9 0.152-20.6 4.5zm198 62.5c-3.52 3.83-4.47 6.29-5.31 11.5-1.65 0.697-3.32 1.36-5 2-1.05 1.97-2.05 3.98-3 6-2.44 2.62-2.44 2.62-5 5-0.722 0.742-1.44 1.48-2.19 2.25-1.81 1.75-1.81 1.75-3.81 2.75v3h-2v2c-1.32 0.33-2.64 0.66-4 1v2h-2v3c-1.33 0.34-1.33 0.34-2.69 0.688-3.78 1.5-5.5 3.43-8.31 6.31-2.62 1.19-2.62 1.19-5 2-0.99 0.66-1.98 1.32-3 2v2c-0.905 0.273-0.905 0.273-1.83 0.551-6.08 1.8-6.08 1.8-11.2 5.45v2c-0.825 0.103-1.65 0.206-2.5 0.312-4.78 0.939-9.57 2.13-13.4 5.23-2.5 1.75-4.33 2.05-7.34 2.46-5.59 0.899-10.4 2.52-15.6 4.82-4.08 1.72-7.53 2.34-12 2.55-4.38 0.262-7.42 0.99-11.3 3-5.67 2.89-11.3 3.72-17.5 4.46-5.14 0.676-8.05 2.15-12.4 5.16-3 0.723-3 0.723-6 1.06-5.44 0.767-9.58 1.92-13.9 5.5-2.58 1.74-5.1 2.12-8.11 2.78-3.28 1.07-5.47 3.39-8.02 5.66l-6 3c-1.38 1.29-2.71 2.63-4 4-2.02 1.76-4.05 3.49-6.1 5.22-1.94 1.82-3.47 3.54-4.9 5.78v3h-3c-1.91 2.6-3 4.99-4 8.06-1 2.94-1 2.94-2.5 4.81-10.6 15-5.41 53.4-2.62 70.6 0.506 2.76 1.07 4.41 2.61 6.78 2.25 4.03 2.63 8.32 3.25 12.8 0.767 4.81 2.21 7.2 5.27 10.9 1.17 3.51 2.01 7.03 2.88 10.6 1.19 3.58 2.74 5.5 5.12 8.38 1.27 2.89 1.27 2.89 2.25 5.81 0.335 0.976 0.67 1.95 1.02 2.96 0.242 0.736 0.485 1.47 0.734 2.23h2c0.268 0.701 0.536 1.4 0.812 2.12 1.27 3.06 2.55 5.99 4.19 8.88 0.99 0.33 1.98 0.66 3 1 0.949 2.07 0.949 2.07 1.69 4.56 0.251 0.826 0.503 1.65 0.762 2.5 0.182 0.638 0.364 1.28 0.551 1.93h2l1 3h2c0.124 0.577 0.248 1.15 0.375 1.75 0.653 2.35 1.32 4.19 2.62 6.25 0.639 0.289 1.28 0.577 1.94 0.875 2.06 1.12 2.06 1.12 3.5 4.06 1.8 3.53 3.22 4.14 6.56 6.06 1.01 1.66 2.01 3.33 3 5h3l0.812 2.31c1.15 2.59 1.95 3.99 4.19 5.69h3c0.33 1.65 0.66 3.3 1 5h2v2c1.31 1.35 2.65 2.69 4 4 0.33 0.66 0.66 1.32 1 2l3 0.875c0.99 0.371 1.98 0.742 3 1.12 0.343 1.33 0.676 2.66 1 4 1.99 1.02 3.99 2.02 6 3 0.639 0.846 1.28 1.69 1.94 2.56 2.68 3.17 5.13 3.4 9.06 4.44l1 3c2.98 1.73 5.85 2.95 9.12 4 2.88 1 2.88 1 4.75 2.5 6.57 4.64 15.4 3.81 23.1 3.76 2-0.0107 4.01 9.53e-4 6.01 0.0127 11.5 0.539 11.5 0.539 21.6-3.78 0.472-0.492 0.944-0.984 1.43-1.49 2.8-1.09 5.63-1.96 8.5-2.84 2.94-1.37 3.22-2.3 4.5-5.16 1.58-0.433 1.58-0.433 3.19-0.875 4.19-1.24 6.06-2.79 9.19-5.68 1.62-1.45 1.62-1.45 4.25-3.01 2.92-1.77 5-4 7.38-6.44 0.99-0.66 1.98-1.32 3-2 0.454-0.784 0.908-1.57 1.38-2.38 1.62-2.62 1.62-2.62 4.19-4.62 2.72-2.23 3.18-3.8 4.44-7 0.928-0.433 0.928-0.433 1.88-0.875 3.43-1.82 4.41-4.69 6.12-8.12v-2c0.598-0.186 1.2-0.371 1.81-0.562 3.19-2.09 3.73-4.98 5.19-8.44 0.65-0.467 1.3-0.933 1.97-1.41 2.52-1.96 3.02-3.53 4.03-6.52 1.78-4.85 1.78-4.85 4.06-7.06 2.77-2.86 3.23-6.04 4.13-9.86 0.267-0.708 0.534-1.42 0.809-2.14 0.99-0.33 1.98-0.66 3-1 1.11-2.12 1.11-2.12 1.94-4.69 1.17-3.16 2.15-5.43 4.12-8.19 2.47-3.98 3.21-7.86 4.13-12.4 0.852-2.85 1.63-3.79 3.81-5.71 1.3-3.17 1.99-5.89 2.31-9.31 0.645-3.46 1.35-5.02 3.12-7.94 3.81-6.43 4.71-13.4 4.56-20.8h2c3.82-5.91 3.9-12.3 4.5-19.2 0.683-7.64 1.52-14.9 3.8-22.2 2.11-7.85 1.89-15.8 1.89-23.9 0.00217-2.25 0.0203-4.49 0.0393-6.74 0.229-15 0.229-15-3.25-29.5-1.1-2.8-1.41-5.23-1.69-8.22-0.111-1.08-0.222-2.17-0.336-3.29-0.218-2.26-0.429-4.53-0.633-6.8-0.651-6.23-1.44-10.1-5.32-15.2-1.01-3.29-1.01-3.29-1.69-6.62-0.231-1.11-0.461-2.21-0.699-3.35-0.304-1.5-0.304-1.5-0.613-3.02-0.324-1.34-0.653-2.67-1-4h-2c-0.481-1.42-0.96-2.83-1.44-4.25-0.4-1.18-0.4-1.18-0.809-2.39-0.673-2.11-1.25-4.21-1.75-6.36h-2v-3l-2-1c-0.687-1.56-1.3-3.15-1.88-4.75-1.56-4.08-3.3-6.9-6.12-10.2-0.692-1.36-1.36-2.74-2-4.12-1.56-3.29-3-4.78-6-6.88-0.309-0.784-0.619-1.57-0.938-2.38-1.38-3.4-3.39-5.14-6.06-7.62-0.887-0.928-1.77-1.86-2.69-2.81-4.19-3.96-8.1-1.21-12 2.36z" fill="#000204"/>
<path transform="translate(1032,461)" d="m0 0c22.1-0.0695 44.2-0.123 66.3-0.155 10.3-0.0154 20.5-0.0365 30.8-0.0709 8.95-0.03 17.9-0.0493 26.8-0.0559 4.74-0.0039 9.47-0.013 14.2-0.0349 4.46-0.0205 8.93-0.0266 13.4-0.0221 1.63-8.2e-4 3.26-0.00672 4.9-0.0183 8.91-0.06 17 0.33 25.5 3.36v2c0.722 0.103 1.44 0.206 2.19 0.312 3.09 0.755 5.23 1.84 7.81 3.69v2l1.75 0.75c2.58 1.43 4.31 3.03 6.25 5.25v2h2c1.4 1.8 1.4 1.8 2.94 4.31 0.504 0.801 1.01 1.6 1.53 2.43 4.8 10.2 4.95 20.3 4.88 31.3-8.48e-4 1.7-3.68e-4 3.39 0.00133 5.09 8.56e-4 4.57-0.0167 9.15-0.0377 13.7-0.0188 4.79-0.0205 9.58-0.0241 14.4-0.0093 9.06-0.0339 18.1-0.064 27.2-0.0336 10.3-0.05 20.6-0.0651 31-0.0313 21.2-0.0846 42.4-0.151 63.6h-21c-0.0155-3.06-0.0155-3.06-0.0312-6.17-0.0976-19.2-0.2-38.4-0.308-57.6-0.0552-9.86-0.109-19.7-0.158-29.6-0.0429-8.6-0.0892-17.2-0.14-25.8-0.0265-4.55-0.0514-9.1-0.0722-13.7-0.0197-4.29-0.0438-8.58-0.0714-12.9-0.00932-1.57-0.017-3.14-0.0229-4.71 0.603-14.2 0.603-14.2-4.45-27-0.583-0.821-1.17-1.64-1.77-2.49-2.12-2.35-4.28-3.61-6.98-5.2v-2l-2.88-0.438c-3.12-0.562-3.12-0.562-5.12-1.56-2.2-0.107-4.41-0.147-6.62-0.158-1.03-0.00741-1.03-0.00741-2.08-0.015-2.32-0.0154-4.63-0.0237-6.95-0.0321-1.66-0.00958-3.31-0.0196-4.97-0.03-4.5-0.0271-9.01-0.0481-13.5-0.068-4.7-0.0218-9.41-0.0492-14.1-0.0761-8.91-0.05-17.8-0.0949-26.7-0.138-10.1-0.0493-20.3-0.104-30.4-0.16-20.9-0.114-41.7-0.221-62.6-0.323v-22z" fill="#000204"/>
<path transform="translate(1222,1130)" d="m0 0h21c0.0695 22.4 0.123 44.8 0.155 67.2 0.0155 10.4 0.0365 20.8 0.0709 31.2 0.0299 9.06 0.0493 18.1 0.0559 27.2 0.0039 4.8 0.013 9.59 0.0349 14.4 0.0204 4.52 0.0266 9.04 0.0221 13.6 8.21e-4 1.65 0.00674 3.31 0.0183 4.96 0.0727 11-0.483 20.6-6.42 30.2-0.507 0.838-1.01 1.68-1.54 2.54-0.694 0.909-0.694 0.909-1.4 1.84h-2l-0.75 2.31c-1.37 2.95-2.49 4.05-5.25 5.69h-2v2c-1.73 0.962-3.46 1.92-5.19 2.88-0.963 0.534-1.93 1.07-2.92 1.62-7.02 3.66-13.2 4.63-21.1 4.63-1.05 0.00128-1.05 0.00128-2.12 0.00259-2.33 0.00164-4.66-0.00384-6.99-0.00932-1.68-2.82e-4 -3.35-1.23e-4 -5.03 4.43e-4 -4.54 2.87e-4 -9.08-0.00559-13.6-0.0126-4.75-0.00626-9.5-0.00684-14.2-0.00803-8.99-0.00311-18-0.0113-27-0.0213-10.2-0.0112-20.5-0.0167-30.7-0.0217-21-0.0104-42.1-0.0282-63.1-0.0503v-22c2.09-0.00587 4.17-0.0117 6.32-0.0178 19.7-0.0567 39.3-0.13 59-0.218 10.1-0.0449 20.2-0.0844 30.3-0.111 8.81-0.023 17.6-0.0564 26.4-0.102 4.66-0.0239 9.33-0.0427 14-0.0489 4.39-0.00606 8.79-0.0261 13.2-0.0567 1.61-0.00877 3.22-0.0125 4.83-0.0107 11.3 0.0253 11.3 0.0253 22-3.43l2.88-0.938c2.66-1.33 2.87-2.42 4.12-5.06 1.27-1.92 2.57-3.82 3.88-5.71 2.46-5.04 2.25-10.9 2.28-16.4 0.00494-0.68 0.00988-1.36 0.015-2.06 0.0153-2.26 0.0237-4.52 0.0321-6.78 0.00959-1.63 0.0196-3.25 0.03-4.88 0.027-4.4 0.048-8.8 0.068-13.2 0.0219-4.61 0.0493-9.21 0.0761-13.8 0.0498-8.72 0.0948-17.4 0.138-26.1 0.0494-9.93 0.104-19.9 0.16-29.8 0.114-20.4 0.22-40.8 0.323-61.2z" fill="#000204"/>
<path transform="translate(363,1130)" d="m0 0h21c0.00365 2.08 0.00729 4.17 0.011 6.32 0.0362 19.6 0.0945 39.3 0.173 58.9 0.0398 10.1 0.0722 20.2 0.0871 30.3 0.013 8.8 0.04 17.6 0.0836 26.4 0.0226 4.66 0.0383 9.32 0.0373 14-7.47e-4 4.39 0.0172 8.78 0.0493 13.2 0.00848 1.61 0.0103 3.21 0.00463 4.82-0.0336 11.1 0.909 20.1 8.77 28.5 8.45 7.38 17.8 7.28 28.4 7.22 1.67 0.00847 3.33 0.0191 5 0.0318 4.5 0.028 8.99 0.0257 13.5 0.0177 4.71-0.00314 9.42 0.0219 14.1 0.044 8.91 0.0374 17.8 0.0496 26.7 0.0526 10.1 0.0047 20.3 0.0376 30.4 0.0729 20.9 0.0719 41.7 0.107 62.6 0.122v22c-22 0.0696-43.9 0.123-65.9 0.155-10.2 0.0154-20.4 0.0365-30.6 0.0709-8.89 0.03-17.8 0.0493-26.7 0.0559-4.7 0.0039-9.41 0.013-14.1 0.0349-4.44 0.0205-8.87 0.0266-13.3 0.0221-1.62 8.2e-4 -3.24 0.00671-4.86 0.0183-9.25 0.0628-17.7-0.53-26.6-3.36v-2c-1.98-0.33-3.96-0.66-6-1v-2l-2.19-0.75c-5.11-2.27-8.51-5.75-11.8-10.2-0.639-0.834-1.28-1.67-1.94-2.53-6.82-10.8-7.77-21.6-7.63-34 0.00141-1.72 6.13e-4 -3.43-0.00221-5.15-0.00142-4.62 0.0278-9.24 0.0629-13.9 0.0314-4.84 0.0342-9.68 0.0401-14.5 0.0155-9.15 0.0564-18.3 0.107-27.5 0.0561-10.4 0.0834-20.9 0.108-31.3 0.0521-21.4 0.141-42.9 0.252-64.3z" fill="#000204"/>
<path transform="translate(420 461)" d="m0 0c1.69 8.48e-4 3.37 3.68e-4 5.06-0.00133 4.55-8.56e-4 9.09 0.0167 13.6 0.0377 4.76 0.0188 9.53 0.0205 14.3 0.0241 9.01 0.0093 18 0.0339 27 0.064 10.3 0.0336 20.5 0.05 30.8 0.0651 21.1 0.0313 42.2 0.0846 63.3 0.151v22c-2.1 0.00143-4.19 0.00285-6.35 0.00432-19.7 0.0158-39.5 0.0592-59.2 0.128-10.2 0.0346-20.3 0.06-30.5 0.0635-8.85 0.00304-17.7 0.0236-26.6 0.065-4.68 0.0213-9.37 0.034-14.1 0.0256-4.41-0.00757-8.83 0.00839-13.2 0.0419-1.61 0.0082-3.23 0.00802-4.84-0.00146-10.1-0.0532-18.6 0.487-26.4 7.63-8.61 8.83-8.31 18.7-8.3 30.4-0.00903 1.66-0.0194 3.31-0.0309 4.97-0.0275 4.48-0.0368 8.96-0.0429 13.4-0.0094 4.69-0.0356 9.37-0.06 14.1-0.0436 8.87-0.0722 17.7-0.0953 26.6-0.0271 10.1-0.071 20.2-0.116 30.3-0.0928 20.8-0.164 41.5-0.222 62.3h-21c-0.0695-22.4-0.123-44.8-0.155-67.2-0.0155-10.4-0.0365-20.8-0.0709-31.2-0.0299-9.07-0.0493-18.1-0.0559-27.2-0.00391-4.8-0.0131-9.6-0.0349-14.4-0.0204-4.52-0.0266-9.04-0.0221-13.6-8.22e-4 -1.66-0.00675-3.31-0.0183-4.97-0.106-16-0.106-16 3.36-23.5 0.311-0.706 0.622-1.41 0.942-2.14 4.65-10.3 12-17.7 22.1-22.9h3v-2c9.3-3.31 18.2-3.41 27.9-3.34z" fill="#000204"/>
<path transform="translate(537 985)" d="m0 0c2.19 1.19 2.19 1.19 4.19 4.19v3h3c2.67 4.56 3.4 7.73 3 13l-1 3h-2c-1.1 2.05-1.96 3.68-2.25 6-1.19 3.17-3.98 4.19-6.75 6-0.351 0.722-0.701 1.44-1.06 2.19-0.309 0.598-0.619 1.2-0.938 1.81-1.67 0.333-3.33 0.667-5 1-1.09 1.93-1.09 1.93-2 4-4.41 2.8-8.95 2.4-14 2-3.49-0.964-5.74-2.14-8-5v-2h-2c-2.33-4.66-1.55-10.9-1-16 1.41-2.51 2.6-3.3 5-5l1-3h2v-2l1.88-0.188 2.12-0.812 0.75-2.19c3.82-8.6 14.4-12.5 23.1-10z" fill="#000204"/>
<path transform="translate(517 776)" d="m0 0c0.768-0.00773 1.54-0.0155 2.33-0.0234 3.88 0.0135 5.81 0.0736 9.11 2.27v3l1.75 0.75c2.58 1.43 4.31 3.03 6.25 5.25v2h3c1.54 1.71 1.54 1.71 3.06 3.94 2.01 3.06 2.01 3.06 4.94 5.06 0.776 11.8 0.776 11.8-1.94 16.1-6.22 3.94-11.3 6.86-18.8 5.55-3.64-1.01-7.25-2.23-10.2-4.61-0.605-2.07-0.605-2.07-1-4-1.85-1.05-1.85-1.05-4-2-2.25-2-2.25-2-4-4v-2l-2.44-0.938c-2.56-1.06-2.56-1.06-3.56-2.06-0.154-2.76-0.232-5.49-0.25-8.25-0.0206-0.764-0.0412-1.53-0.0625-2.32-0.0319-4.62 0.231-7.74 3.31-11.4 3.63-2.85 8.16-2.29 12.6-2.25z" fill="#000204"/>
<path transform="translate(819,951)" d="m0 0c2.83 6.12 3.16 13.5 0.938 19.9-2.51 4.05-4.69 5.08-8.94 7.12l-1 1c-6.9 1-10.3-1.01-15.8-5.08-3.16-2.76-4.97-4.54-5.67-8.76-0.085-8.43-0.085-8.43 2.78-12.2l2.69-1.94c0.495-0.578 0.99-1.16 1.5-1.75 6.6-5.5 16.8-1.61 23.5 1.75z" fill="#000204"/>
<path transform="translate(961,950)" d="m0 0c3.56 5.45 3.4 10.6 3 17l-0.125 3.44c-0.875 2.56-0.875 2.56-3.81 4.44-3.06 1.12-3.06 1.12-5.06 1.12v2c-2.99 1.49-5.71 1.12-9 1l-2-1v-2c-0.746-0.0825-1.49-0.165-2.26-0.25-4.23-1.16-5.82-3.76-8.36-7.18-2.19-4.06-1.89-7.04-1.38-11.6 0.65-0.29 1.3-0.58 1.97-0.879 0.67-0.37 1.34-0.74 2.03-1.12 0.343-1.33 0.676-2.66 1-4 6.32-5.88 16.9-5.56 24-1z" fill="#000204"/>
<path transform="translate(627 891)" d="m0 0c1.17-0.0251 1.17-0.0251 2.37-0.0508 2.68 0.445 3.57 1.22 5.19 3.36v2h2v2c0.99 0.33 1.98 0.66 3 1 0.108 1.6 0.186 3.21 0.25 4.81 0.0464 0.893 0.0928 1.79 0.141 2.71-0.391 2.48-0.391 2.48-2.28 4.3-2.11 1.18-2.11 1.18-4.11 1.18l-1 3c-3.05 0.293-5.96 0.432-9 0-2.31-2.31-2.31-2.31-4-5-0.742-0.412-1.48-0.825-2.25-1.25-2.17-2.17-2.14-3.12-2.31-6.12 0.152-3.74 0.462-4.5 2.94-7.56l2.62-2.06c2.41-2.41 3.13-2.3 6.44-2.31z" fill="#000204"/>
</svg>
